# xmcd
#
# Track frame offsets: 
#        182
#        12745
#        29225
#        42882
#        60690
#        73982
#        85992
#        104532
#        118570
#        133565
#
# Disc length: 1947 seconds
#
# Revision: 3
# Processed by: cddbd v1.4PL0 Copyright (c) Steve Scherf et al.
# Submitted via: ExactAudioCopy v0.90b3
#
DISCID=9507990a
DTITLE=George Jones - I Lived To Tell It All
DYEAR=1900
DGENRE=Country
TTITLE0=Honky Tonk Song
TTITLE1=Back Down To Hung Up On You
TTITLE2=Billy B. Bad
TTITLE3=Hundred Proof Memories
TTITLE4=It Ain't Gonna Worry My Mind
TTITLE5=The Lone Ranger
TTITLE6=Tied To A Stone
TTITLE7=I'll Give You Something To Drink About
TTITLE8=I Must Have Done Something Bad
TTITLE9=Hello Heart
EXTD=
EXTT0=
EXTT1=
EXTT2=
EXTT3=
EXTT4=
EXTT5=
EXTT6=
EXTT7=
EXTT8=
EXTT9=
PLAYORDER=
